# xmcd CD database file
#
# Track frame offsets:
#	150
#	24510
#	47490
#	70600
#
# Disc length: 1279 seconds
#
# Revision: 0
# Processed by: cddbd v1.5PL3 Copyright (c) Steve Scherf et al.
# Submitted via: CDex 1.51
#
DISCID=2704fd04
DTITLE=HEEMEE - KISS KISS KISS
DYEAR=1997
DGENRE=Other
TTITLE0=KISS KISS KISS (NAOMIE and HEEMEE - KATCHIN)
TTITLE1=CHANGE (NAOMIE - KATCHIN)
TTITLE2=PHEROMONE (KATCHIN)
TTITLE3=LOVE, IN THE SPACE (NAOMIE and HEEMEE - KATCHIN)
EXTD=YEAR: 1997
EXTT0=
EXTT1=
EXTT2=
EXTT3=
PLAYORDER=
